<?xml version="1.0" encoding="utf-8"?>
<!-- Generator: Adobe Illustrator 21.0.0, SVG Export Plug-In . SVG Version: 6.00 Build 0)  -->
<svg version="1.1" id="Layer_1" xmlns="http://www.w3.org/2000/svg" xmlns:xlink="http://www.w3.org/1999/xlink" x="0px" y="0px"
	 width="350px" height="302px" viewBox="0 0 350 302" style="enable-background:new 0 0 350 302;" xml:space="preserve">
<style type="text/css">
	.st0{fill:#CCD5E2;}
	.st1{fill:#FFFFFF;}
	.st2{fill:#F9D76B;}
	.st3{fill:#FC86B4;}
	.st4{fill:#8AF9DC;}
	.st5{clip-path:url(#SVGID_2_);fill:#FFD48F;}
	.st6{clip-path:url(#SVGID_2_);}
	.st7{fill:#FFD48F;}
	.st8{fill:#F5C476;}
	.st9{fill:#8F6135;}
	.st10{fill:#D66DF7;}
	.st11{clip-path:url(#SVGID_4_);}
	.st12{fill:#FFC975;}
	.st13{clip-path:url(#SVGID_4_);fill:#FC86B4;}
	.st14{fill:#EBB159;}
</style>
<g>
	<g>
		<path class="st0" d="M218.3,276.5h-81.9c-12.7,0-23-10.3-23-23v-205c0-12.7,10.3-23,23-23h81.9c12.7,0,23,10.3,23,23v204.9
			C241.3,266.2,231.1,276.5,218.3,276.5z"/>
		<path class="st1" d="M219.3,267.6h-83.9c-8.9,0-16.1-7.2-16.1-16.1V49.2c0-8.9,7.2-16.1,16.1-16.1h83.9c8.9,0,16.1,7.2,16.1,16.1
			v202.3C235.4,260.4,228.3,267.6,219.3,267.6z"/>
	</g>
	<path class="st0" d="M212.1,33h-7.5c-2.3,0-4.2,1.9-4.2,4.2v2.9c0,2.3-1.9,4.2-4.2,4.2h-33.6c-2.3,0-4.2-1.9-4.2-4.2v-3
		c0-2.3-1.9-4.2-4.2-4.2h-21.5v-2.2h79.5V33H212.1z"/>
</g>
<path class="st2" d="M210.6,154.6h-71.3c-2.2,0-3.9,1.8-3.9,3.9v0.1l-6,3.5l6,3.5v10.4c0,2.2,1.8,3.9,3.9,3.9h71.3
	c2.2,0,3.9-1.8,3.9-3.9v-17.4C214.5,156.3,212.7,154.6,210.6,154.6z"/>
<path class="st2" d="M188.4,67.2h-51c-1.4,0-2.5,1.1-2.5,2.5v1.2l-5.6,3.3l5.6,3.3v1.4c0,1.4,1.1,2.5,2.5,2.5h51
	c1.4,0,2.5-1.1,2.5-2.5v-9.2C190.9,68.3,189.8,67.2,188.4,67.2z"/>
<path class="st3" d="M170.5,101.4h51c1.4,0,2.5-1.1,2.5-2.5v-1.2l5.6-3.3l-5.6-3.3v-1.4c0-1.4-1.1-2.5-2.5-2.5h-51
	c-1.4,0-2.5,1.1-2.5,2.5v9.2C168.1,100.3,169.2,101.4,170.5,101.4z"/>
<path class="st3" d="M170.5,119.4h51c1.4,0,2.5-1.1,2.5-2.5v-1.2l5.6-3.3l-5.6-3.3v-1.4c0-1.4-1.1-2.5-2.5-2.5h-51
	c-1.4,0-2.5,1.1-2.5,2.5v9.2C168.1,118.3,169.2,119.4,170.5,119.4z"/>
<path class="st2" d="M188.7,185.5h-51c-1.4,0-2.5,1.1-2.5,2.5v1.2l-5.9,3.4l5.9,3.4v1.2c0,1.4,1.1,2.5,2.5,2.5h51
	c1.4,0,2.5-1.1,2.5-2.5v-9.2C191.2,186.6,190.1,185.5,188.7,185.5z"/>
<path class="st4" d="M150,77.6H87.4c-12.8,0-23.2,10.4-23.2,23.2l0,0c0,12.8,10.4,23.2,23.2,23.2H150c12.8,0,23.2-10.4,23.2-23.2
	l0,0C173.1,88,162.8,77.6,150,77.6z"/>
<g>
	<circle class="st1" cx="88" cy="100.8" r="19.4"/>
	<g>
		<defs>
			<circle id="SVGID_1_" cx="88" cy="100.8" r="19.4"/>
		</defs>
		<clipPath id="SVGID_2_">
			<use xlink:href="#SVGID_1_"  style="overflow:visible;"/>
		</clipPath>
		<path class="st5" d="M95.1,107.8c-1.2,0-2.3,1.1-1.5,4.1c1.8,6.7,1.8,9.1,1.8,9.1h3.4c0,0-0.9-4-1-7.6
			C97.7,109.9,96.1,107.8,95.1,107.8z"/>
		<path class="st5" d="M81,107.8c1.2,0,2.3,1.1,1.5,4.1c-1.8,6.7-1.8,9.1-1.8,9.1h-3.4c0,0,0.9-4,1-7.6
			C78.4,109.9,80,107.8,81,107.8z"/>
		<g class="st6">
			<path class="st2" d="M91.9,106.2c0,0-2.7,2.9-4,2.8c-1.2,0-3.9-2.8-3.9-2.8c-3.3,0-6,2.5-6,5.7c0,0.1,0,0.2,0,0.2
				c0,0.1,0.1,0.2,0.2,0.2c0.9,0.1,3.4,1.9,3.4,1.9v2.9v3.9l12.5,0V117v-2.9c0,0,2.6-1.7,3.4-1.9c0.1,0,0.2-0.1,0.2-0.2
				c0,0,0-0.2,0-0.2C98.1,108.7,95.2,106.2,91.9,106.2z"/>
		</g>
		<g class="st6">
			<path class="st7" d="M90.7,105.1c0-0.6,0-3.7,0-3.7h-2.8H85c0,0,0,3.1,0,3.7c0,0.9-1.1,1-1.5,1.1c-0.4,2.2,2.3,3.8,4.3,3.8
				c2,0,4.6-1.9,4.3-3.8C91.8,106.1,90.7,106,90.7,105.1z"/>
		</g>
		<g class="st6">
			<path class="st8" d="M90.7,105.4c0-0.1,0-0.2,0-0.3c0-0.6,0-3.7,0-3.7h-2.8H85c0,0,0,1.5,0,2.6c0.8,1.3,2,1.9,3.7,2
				C89.5,106,90.2,105.8,90.7,105.4z"/>
		</g>
		<g class="st6">
			<path class="st7" d="M92,93.5c-1.6-1.1-6.4-1.1-8,0c-1.3,0.9-1.8,4.1-1.1,6.6c0.9,3,2.3,5,5.1,5.1c2.7-0.1,4.2-2,5.1-5.1
				C93.8,97.6,93.3,94.4,92,93.5z"/>
		</g>
		<g class="st6">
			<g>
				<path class="st9" d="M89.8,94.4c0,0,2,1.8,2.2,2.6c0.4,1.1,0.3,4.7,0.3,4.7l1.7-3.2c0,0,0.3-1.4,0.1-2.8
					c-1.2-7.9-11.8-6.7-12.2,0c-0.1,1,0.1,2.8,0.1,2.8l1.6,2.7c0,0-1.2-4.2,0-4.4C86.4,96.4,89.8,94.4,89.8,94.4z"/>
			</g>
			<g>
				<path class="st9" d="M81.9,95.2c0,0-1.1,4.8-1.3,6.6c-0.3,4.7,4.7,3.2,4.2,2.1C82.8,99.6,81.9,95.2,81.9,95.2z"/>
			</g>
			<g>
				<path class="st9" d="M93.9,95.1c0,0,1.1,4.8,1.3,6.6c0.3,4.7-4.9,3.4-4.2,2.3C93.3,99.8,93.9,95.1,93.9,95.1z"/>
			</g>
		</g>
	</g>
</g>
<g>
	<g>
		<path class="st1" d="M159.4,94.4h-37.2c-1,0-1.7,0.8-1.7,1.7l0,0c0,1,0.8,1.7,1.7,1.7h37.2c1,0,1.7-0.8,1.7-1.7l0,0
			C161.2,95.1,160.4,94.4,159.4,94.4z"/>
		<path class="st1" d="M159.4,102.9h-37.2c-1,0-1.7,0.8-1.7,1.7l0,0c0,1,0.8,1.7,1.7,1.7h37.2c1,0,1.7-0.8,1.7-1.7l0,0
			C161.2,103.7,160.4,102.9,159.4,102.9z"/>
		<path class="st1" d="M159.4,111.4h-37.2c-1,0-1.7,0.8-1.7,1.7l0,0c0,1,0.8,1.7,1.7,1.7h37.2c1,0,1.7-0.8,1.7-1.7l0,0
			C161.2,112.2,160.4,111.4,159.4,111.4z"/>
	</g>
	<circle class="st1" cx="158.9" cy="87.7" r="2.3"/>
	<circle class="st1" cx="151.3" cy="87.7" r="2.3"/>
	<circle class="st1" cx="143.7" cy="87.7" r="2.3"/>
</g>
<path class="st4" d="M156.6,118.6v11.8c0,1.9-2.3,2.9-3.7,1.5l-13.8-13.8L156.6,118.6z"/>
<path class="st10" d="M282.8,133.6H209c-11.6,0-21.1,9.4-21.1,21.1v0c0,11.6,9.4,21.1,21.1,21.1h73.8c11.6,0,21.1-9.4,21.1-21.1v0
	C303.9,143,294.4,133.6,282.8,133.6z"/>
<g>
	<g>
		<path class="st1" d="M291.4,148.8h-50.7c-0.9,0-1.6,0.7-1.6,1.6l0,0c0,0.9,0.7,1.6,1.6,1.6h50.7c0.9,0,1.6-0.7,1.6-1.6l0,0
			C293,149.5,292.3,148.8,291.4,148.8z"/>
		<path class="st1" d="M291.4,156.6h-50.7c-0.9,0-1.6,0.7-1.6,1.6v0c0,0.9,0.7,1.6,1.6,1.6h50.7c0.9,0,1.6-0.7,1.6-1.6v0
			C293,157.3,292.3,156.6,291.4,156.6z"/>
		<path class="st1" d="M291.4,164.3h-50.7c-0.9,0-1.6,0.7-1.6,1.6l0,0c0,0.9,0.7,1.6,1.6,1.6h50.7c0.9,0,1.6-0.7,1.6-1.6l0,0
			C293,165.1,292.3,164.3,291.4,164.3z"/>
	</g>
	<circle class="st1" cx="290.9" cy="142.8" r="2.1"/>
	<circle class="st1" cx="284" cy="142.8" r="2.1"/>
	<circle class="st1" cx="277.1" cy="142.8" r="2.1"/>
</g>
<path class="st10" d="M204.1,170.9v10.8c0,1.7,2.1,2.6,3.3,1.4l12.5-12.5L204.1,170.9z"/>
<g>
	<circle class="st1" cx="209.4" cy="154.9" r="17.4"/>
	<g>
		<defs>
			<circle id="SVGID_3_" cx="209.4" cy="154.9" r="17.4"/>
		</defs>
		<clipPath id="SVGID_4_">
			<use xlink:href="#SVGID_3_"  style="overflow:visible;"/>
		</clipPath>
		<g class="st11">
			<path class="st9" d="M204,148.8c0,0-1,6.4-1.1,8.7c-0.3,6.2,4.4,3.1,4.6,1.5c0.1-0.9-1.2-1.2-1.4-3.3
				C205.9,152.5,204,148.8,204,148.8z"/>
		</g>
		<g class="st11">
			<path class="st9" d="M214.8,148.8c0,0,1,6.4,1.1,8.7c0.3,6.2-4.4,3.1-4.6,1.5c-0.1-0.9,1.6-1.2,1.8-3.2
				C213.4,152.6,214.8,148.8,214.8,148.8z"/>
		</g>
		<g class="st11">
			<path class="st12" d="M218.8,173.1h-2.7l-1.8-7.4l1.8-5.3c0,0,2.7,1.5,2.6,6.2C218.6,169.1,218.8,173.1,218.8,173.1z"/>
		</g>
		<g class="st11">
			<path class="st12" d="M199.9,173.1h2.7l1.8-7.4l-1.8-5.3c0,0-2.7,1.5-2.6,6.2C200.1,169.1,199.9,173.1,199.9,173.1z"/>
		</g>
		<path class="st13" d="M213.1,159.7h-3.7h-3.7c-0.8,0-2.2,0.4-3,0.7c0,0,0.6,3.4,0.6,5.1c0,1.5,0,7.6,0,7.6h4.6h1.6h1.6h4.6
			c0,0,0-6.1,0-7.6c0-1.7,0.6-5.1,0.6-5.1C215.4,160.1,213.9,159.7,213.1,159.7z"/>
		<g class="st11">
			<path class="st12" d="M211.9,158.8c0-0.5,0-3.3,0-3.3h-2.6h-2.6c0,0,0,2.8,0,3.3c0,0.8-1,0.9-1.3,1c0.6,1,2.1,2.1,3.9,2.1
				c1.8,0,3.3-1.1,3.9-2.1C212.9,159.7,211.9,159.6,211.9,158.8z"/>
		</g>
		<g class="st11">
			<path class="st14" d="M212,159.1c0-0.1,0-0.2,0-0.2c0-0.5,0-3.3,0-3.3h-2.6h-2.6c0,0,0,1.3,0,2.3c0.8,1.2,1.8,1.7,3.3,1.8
				C210.8,159.6,211.4,159.4,212,159.1z"/>
		</g>
		<g class="st11">
			<path class="st12" d="M213,148.4c-1.4-1-5.5-1-6.9,0c-1.1,0.8-1.6,3.7-0.9,6c0.8,2.7,2,4.5,4.4,4.6c2.4-0.1,3.6-1.8,4.4-4.6
				C214.5,152.1,214,149.2,213,148.4z"/>
		</g>
		<g class="st11">
			<path class="st9" d="M206.5,148.9c0,0,3,1.3,4.7,1.8c1.1,0.3,1.8,0.3,2.2,0.8c0.4,0.4,0.2,4.3,0.2,4.3l1.3-2.4
				c0,0,0.1-2.7-0.1-3.9c-1-7.1-10.6-6-11,0c-0.1,0.9,0.1,2.5,0.1,2.5l1,3.9c0,0-0.3-4.6,0.4-5.4
				C206.3,149.7,206.5,148.9,206.5,148.9z"/>
		</g>
	</g>
</g>
<path class="st3" d="M148.8,224.2h71.3c2.2,0,3.9,1.8,3.9,3.9v0.1l6,3.5l-6,3.5v10.4c0,2.2-1.8,3.9-3.9,3.9h-71.3
	c-2.2,0-3.9-1.8-3.9-3.9v-17.4C144.9,225.9,146.7,224.2,148.8,224.2z"/>
</svg>
